<svg xmlns="http://www.w3.org/2000/svg" width="30" height="32" viewBox="0 0 30 32">
  <g id="icon" transform="translate(-332 -1474)">
    <g id="bg" transform="translate(332 1474)" fill="#fff" stroke="#3b235d" stroke-width="1.7">
      <rect width="30" height="32" rx="7" stroke="none"/>
      <rect x="0.85" y="0.85" width="28.3" height="30.3" rx="6.15" fill="none"/>
    </g>
    <path id="Path_1516" data-name="Path 1516" d="M158.715,143.772H147.8a.917.917,0,0,1,0-1.834h10.918a.917.917,0,0,1,0,1.834m-16.309.562a.912.912,0,0,1-.6-.224l-1.414-1.227a.916.916,0,0,1,1.2-1.386l.747.648,1.682-1.807a.916.916,0,1,1,1.338,1.251l-2.283,2.454a.913.913,0,0,1-.669.292m16.309,6.281H147.8a.917.917,0,0,1,0-1.834h10.918a.917.917,0,0,1,0,1.834m-16.309.562a.913.913,0,0,1-.6-.224l-1.414-1.227a.916.916,0,0,1,1.2-1.386l.747.648,1.682-1.807a.916.916,0,1,1,1.338,1.251l-2.283,2.454a.913.913,0,0,1-.669.292m16.309,6.135H147.8a.917.917,0,0,1,0-1.834h10.918a.917.917,0,0,1,0,1.834m-16.309.562a.913.913,0,0,1-.6-.224l-1.414-1.227a.916.916,0,0,1,1.2-1.386l.747.648,1.682-1.807a.916.916,0,1,1,1.338,1.251l-2.283,2.454a.913.913,0,0,1-.669.292" transform="translate(197.039 1340.953)" fill="#3b235d" fill-rule="evenodd"/>
  </g>
</svg>
