<svg xmlns="http://www.w3.org/2000/svg" width="13.5" height="16.539" viewBox="0 0 13.5 16.539">
  <path id="icon" d="M10.5,2A6.451,6.451,0,0,0,4,8.4c0,4.32,5.728,9.2,5.972,9.408a.822.822,0,0,0,1.056,0C11.313,17.6,17,12.72,17,8.4A6.451,6.451,0,0,0,10.5,2Zm0,14.12c-1.731-1.6-4.875-5.048-4.875-7.72a4.876,4.876,0,0,1,9.75,0C15.375,11.072,12.231,14.528,10.5,16.12Zm0-10.92a3.2,3.2,0,1,0,3.25,3.2A3.225,3.225,0,0,0,10.5,5.2Zm0,4.8a1.6,1.6,0,1,1,1.625-1.6A1.613,1.613,0,0,1,10.5,10Z" transform="translate(-3.75 -1.75)" fill="#444" stroke="#eae8ed" stroke-width="0.5"/>
</svg>
